<?xml version="1.0" standalone="no"?>
<!DOCTYPE svg PUBLIC "-//W3C//DTD SVG 20010904//EN"
 "http://www.w3.org/TR/2001/REC-SVG-20010904/DTD/svg10.dtd">
<svg version="1.0" xmlns="http://www.w3.org/2000/svg"
 width="1000.000000pt" height="1000.000000pt" viewBox="0 0 1000.000000 1000.000000"
 preserveAspectRatio="xMidYMid meet">

<g transform="translate(0.000000,1000.000000) scale(0.100000,-0.100000)"
fill="#000000" stroke="none">
<path d="M1490 4719 l1 -1424 1635 -933 c900 -513 1638 -931 1641 -929 2 3 1
638 -3 1413 l-7 1409 -211 122 -211 121 -30 -28 c-61 -57 -111 -75 -210 -75
-75 0 -97 4 -135 24 -25 13 -380 218 -790 456 -410 237 -755 437 -767 444
l-23 12 0 -183 0 -183 726 -420 725 -420 -4 -145 c-5 -174 -18 -218 -88 -294
-77 -85 -191 -122 -296 -97 -32 8 -223 113 -553 306 l-505 294 -3 -564 c-1
-311 -5 -565 -8 -565 -3 0 -133 74 -288 165 l-283 165 -6 617 c-4 339 -7 919
-7 1288 l0 673 -127 73 c-71 40 -138 79 -150 87 l-23 14 0 -1423z"/>
<path d="M8320 6024 c-102 -59 -191 -112 -198 -118 -10 -10 -8 -22 9 -60 47
-107 61 -300 35 -476 -27 -176 -96 -352 -193 -487 -40 -58 -42 -63 -22 -63 82
0 171 -66 213 -159 91 -203 68 -572 -55 -868 -94 -225 -302 -460 -554 -628
-44 -29 -465 -274 -935 -545 -470 -271 -870 -501 -888 -512 l-33 -20 3 553 4
554 26 95 c50 181 145 368 277 543 84 112 259 284 360 355 41 29 305 184 585
345 534 305 579 336 617 421 25 59 34 144 19 190 -15 46 -44 61 -91 48 -25 -7
-1638 -922 -1766 -1002 -12 -8 -25 -12 -28 -9 -3 3 35 100 84 215 49 115 87
210 86 212 -1 1 -144 -80 -318 -180 l-317 -183 0 -1408 0 -1409 69 39 c37 21
773 441 1634 933 l1567 895 0 1418 c0 779 -1 1417 -2 1417 -2 0 -86 -48 -188
-106z"/>
<path d="M7481 4219 c-14 -5 -280 -156 -593 -336 l-568 -326 0 -189 0 -188 48
27 c27 16 284 163 571 328 288 165 543 317 566 338 24 21 56 63 72 95 23 48
28 70 28 138 0 67 -4 86 -19 103 -21 23 -63 27 -105 10z"/>
<path d="M4332 1117 c-44 -46 -15 -51 38 -7 35 29 35 29 9 30 -14 0 -35 -10
-47 -23z"/>
<path d="M2535 1027 c-42 -42 -58 -102 -53 -193 7 -113 50 -164 137 -164 42 0
52 6 44 26 -3 9 -20 14 -43 14 -60 0 -91 49 -92 143 -2 112 33 172 97 170 28
-1 35 3 35 18 0 16 -7 19 -46 19 -39 0 -51 -5 -79 -33z"/>
<path d="M2736 1030 c-32 -38 -46 -88 -46 -163 0 -127 38 -197 108 -197 74 0
112 69 112 202 0 125 -36 188 -109 188 -31 0 -44 -6 -65 -30z m84 -10 c27 -14
44 -75 44 -155 0 -116 -35 -181 -83 -155 -58 30 -60 276 -3 310 21 12 20 12
42 0z"/>
<path d="M2970 865 c0 -167 2 -195 15 -195 13 0 15 24 15 158 l1 157 59 -154
c33 -85 60 -156 60 -157 0 -2 11 -4 25 -4 l25 0 0 195 c0 188 -1 195 -20 195
-19 0 -20 -7 -21 -152 l0 -153 -60 153 c-49 123 -64 152 -80 152 -18 0 -19 -9
-19 -195z"/>
<path d="M3285 1027 c-42 -42 -58 -102 -53 -193 7 -113 50 -164 137 -164 42 0
52 6 44 26 -3 9 -20 14 -43 14 -60 0 -91 49 -92 143 -2 112 33 172 97 170 28
-1 35 3 35 18 0 16 -7 19 -46 19 -39 0 -51 -5 -79 -33z"/>
<path d="M3460 865 l0 -195 75 0 c68 0 75 2 75 20 0 18 -7 20 -55 20 l-55 0 0
75 0 75 50 0 c38 0 50 4 50 15 0 11 -12 15 -50 15 l-50 0 0 65 0 65 50 0 c43
0 50 3 50 20 0 18 -7 20 -70 20 l-70 0 0 -195z"/>
<path d="M3670 865 c0 -188 1 -195 20 -195 18 0 20 7 20 80 0 79 0 80 25 80
77 0 128 76 105 159 -13 50 -48 71 -120 71 l-50 0 0 -195z m118 138 c17 -23
15 -84 -4 -111 -10 -14 -25 -22 -45 -22 l-29 0 0 73 c0 41 3 77 7 81 11 11 56
-3 71 -21z"/>
<path d="M3935 1027 c-42 -42 -58 -102 -53 -193 7 -113 50 -164 137 -164 42 0
52 6 44 26 -3 9 -20 14 -43 14 -60 0 -91 49 -92 143 -2 112 33 172 97 170 28
-1 35 3 35 18 0 16 -7 19 -46 19 -39 0 -51 -5 -79 -33z"/>
<path d="M4120 865 c0 -188 1 -195 20 -195 19 0 20 7 20 195 0 188 -1 195 -20
195 -19 0 -20 -7 -20 -195z"/>
<path d="M4266 1030 c-32 -38 -46 -88 -46 -163 0 -127 38 -197 108 -197 74 0
112 69 112 202 0 125 -36 188 -109 188 -31 0 -44 -6 -65 -30z m84 -10 c27 -14
44 -75 44 -155 0 -116 -35 -181 -83 -155 -58 30 -60 276 -3 310 21 12 20 12
42 0z"/>
<path d="M4500 865 c0 -167 2 -195 15 -195 13 0 15 24 15 158 l1 157 59 -154
c33 -85 60 -156 60 -157 0 -2 11 -4 25 -4 l25 0 0 195 c0 188 -1 195 -20 195
-19 0 -20 -7 -21 -152 l0 -153 -60 153 c-49 123 -64 152 -80 152 -18 0 -19 -9
-19 -195z"/>
<path d="M5070 1040 c0 -16 7 -20 35 -20 l35 0 0 -175 c0 -168 1 -175 20 -175
19 0 20 7 20 175 l0 175 40 0 c33 0 40 3 40 20 0 19 -7 20 -95 20 -88 0 -95
-1 -95 -20z"/>
<path d="M5320 963 c-12 -54 -32 -142 -45 -195 l-23 -98 23 0 c19 0 24 8 34
60 l12 60 44 0 c40 0 45 -3 51 -27 19 -85 21 -88 42 -91 19 -3 22 0 17 20 -3
13 -22 100 -44 193 -36 162 -39 170 -63 173 -24 3 -26 -1 -48 -95z m65 -42
c21 -101 21 -101 -21 -101 -34 0 -36 1 -31 28 4 15 12 55 18 89 7 35 14 62 15
60 2 -2 10 -36 19 -76z"/>
<path d="M5530 865 l0 -195 75 0 c68 0 75 2 75 20 0 18 -7 20 -55 20 l-55 0 0
175 c0 168 -1 175 -20 175 -19 0 -20 -7 -20 -195z"/>
<path d="M5745 1027 c-42 -42 -58 -102 -53 -193 7 -113 50 -164 137 -164 42 0
52 6 44 26 -3 9 -20 14 -43 14 -60 0 -91 49 -92 143 -2 112 33 172 97 170 28
-1 35 3 35 18 0 16 -7 19 -46 19 -39 0 -51 -5 -79 -33z"/>
<path d="M5970 963 c-12 -54 -32 -142 -45 -195 l-23 -98 23 0 c19 0 24 8 34
60 l12 60 44 0 c40 0 45 -3 51 -27 19 -85 21 -88 42 -91 19 -3 22 0 17 20 -3
13 -22 100 -44 193 -36 162 -39 170 -63 173 -24 3 -26 -1 -48 -95z m65 -42
c21 -101 21 -101 -21 -101 -34 0 -36 1 -31 28 4 15 12 55 18 89 7 35 14 62 15
60 2 -2 10 -36 19 -76z"/>
<path d="M6190 865 c0 -188 1 -195 20 -195 19 0 20 7 20 90 l0 90 55 0 55 0 0
-90 c0 -83 1 -90 20 -90 19 0 20 7 20 195 0 188 -1 195 -20 195 -18 0 -20 -7
-20 -85 l0 -85 -55 0 -55 0 0 85 c0 78 -2 85 -20 85 -19 0 -20 -7 -20 -195z"/>
<path d="M6460 900 c0 -211 13 -238 111 -228 25 2 39 12 56 37 22 32 23 44 23
192 0 150 -1 159 -19 159 -18 0 -20 -10 -23 -161 -3 -155 -4 -161 -27 -180
-28 -23 -32 -23 -57 -5 -17 13 -19 30 -22 180 -3 156 -4 166 -23 166 -18 0
-19 -9 -19 -160z"/>
<path d="M6760 963 c-12 -54 -32 -142 -45 -195 l-23 -98 23 0 c19 0 24 8 34
60 l12 60 44 0 c40 0 45 -3 51 -27 19 -85 21 -88 42 -91 19 -3 22 0 17 20 -3
13 -22 100 -44 193 -36 162 -39 170 -63 173 -24 3 -26 -1 -48 -95z m65 -42
c21 -101 21 -101 -21 -101 -34 0 -36 1 -31 28 4 15 12 55 18 89 7 35 14 62 15
60 2 -2 10 -36 19 -76z"/>
<path d="M6970 865 c0 -167 2 -195 15 -195 13 0 15 24 15 158 l1 157 59 -154
c33 -85 60 -156 60 -157 0 -2 11 -4 25 -4 l25 0 0 195 c0 188 -1 195 -20 195
-19 0 -20 -7 -21 -152 l0 -153 -60 153 c-49 123 -64 152 -80 152 -18 0 -19 -9
-19 -195z"/>
<path d="M7266 1030 c-32 -38 -46 -88 -46 -163 0 -127 38 -197 108 -197 74 0
112 69 112 202 0 125 -36 188 -109 188 -31 0 -44 -6 -65 -30z m84 -10 c27 -14
44 -75 44 -155 0 -116 -35 -181 -83 -155 -58 30 -60 276 -3 310 21 12 20 12
42 0z"/>
<path d="M4840 865 c0 -12 13 -15 60 -15 47 0 60 3 60 15 0 12 -13 15 -60 15
-47 0 -60 -3 -60 -15z"/>
</g>
</svg>
